<svg width="677" height="296" viewBox="0 0 677 296" fill="none" xmlns="http://www.w3.org/2000/svg">
<path d="M211.717 26.4385H143.686C110.288 26.4385 83.2135 53.513 83.2135 86.911V154.942C83.2135 188.34 110.288 215.415 143.686 215.415H211.717C245.115 215.415 272.19 188.34 272.19 154.942V86.911C272.19 53.513 245.115 26.4385 211.717 26.4385Z" fill="#3B2C27"/>
<path d="M170.937 155.69L197.993 129.299L105.518 32.7518L78.4618 59.1423L170.937 155.69Z" fill="#FFF9F9"/>
<path d="M84.6888 187.696L110.726 215.092L275.086 58.882L249.048 31.4861L84.6888 187.696Z" fill="#FFF9F9"/>
<path d="M324.128 88.192V110.56H348.512V117.76H324.128V140.8H351.392V148H315.392V80.992H351.392V88.192H324.128ZM384.195 139.936L400.515 95.392H409.827L389.187 148H379.011L358.371 95.392H367.779L384.195 139.936ZM466.423 119.68C466.423 121.344 466.327 123.104 466.135 124.96H424.087C424.407 130.144 426.167 134.208 429.367 137.152C432.631 140.032 436.567 141.472 441.175 141.472C444.951 141.472 448.087 140.608 450.583 138.88C453.143 137.088 454.935 134.72 455.959 131.776H465.367C463.959 136.832 461.143 140.96 456.919 144.16C452.695 147.296 447.447 148.864 441.175 148.864C436.183 148.864 431.703 147.744 427.735 145.504C423.831 143.264 420.759 140.096 418.519 136C416.279 131.84 415.159 127.04 415.159 121.6C415.159 116.16 416.247 111.392 418.423 107.296C420.599 103.2 423.639 100.064 427.543 97.888C431.511 95.648 436.055 94.528 441.175 94.528C446.167 94.528 450.583 95.616 454.423 97.792C458.263 99.968 461.207 102.976 463.255 106.816C465.367 110.592 466.423 114.88 466.423 119.68ZM457.399 117.856C457.399 114.528 456.663 111.68 455.191 109.312C453.719 106.88 451.703 105.056 449.143 103.84C446.647 102.56 443.863 101.92 440.791 101.92C436.375 101.92 432.599 103.328 429.463 106.144C426.391 108.96 424.631 112.864 424.183 117.856H457.399ZM503.587 94.432C509.987 94.432 515.171 96.384 519.139 100.288C523.107 104.128 525.091 109.696 525.091 116.992V148H516.451V118.24C516.451 112.992 515.139 108.992 512.515 106.24C509.891 103.424 506.307 102.016 501.763 102.016C497.155 102.016 493.475 103.456 490.723 106.336C488.035 109.216 486.691 113.408 486.691 118.912V148H477.955V95.392H486.691V102.88C488.419 100.192 490.755 98.112 493.699 96.64C496.707 95.168 500.003 94.432 503.587 94.432ZM550.017 102.592V133.6C550.017 136.16 550.561 137.984 551.649 139.072C552.737 140.096 554.625 140.608 557.313 140.608H563.745V148H555.873C551.009 148 547.361 146.88 544.929 144.64C542.497 142.4 541.281 138.72 541.281 133.6V102.592H534.465V95.392H541.281V82.144H550.017V95.392H563.745V102.592H550.017ZM578.842 86.848C577.178 86.848 575.77 86.272 574.618 85.12C573.466 83.968 572.89 82.56 572.89 80.896C572.89 79.232 573.466 77.824 574.618 76.672C575.77 75.52 577.178 74.944 578.842 74.944C580.442 74.944 581.786 75.52 582.874 76.672C584.026 77.824 584.602 79.232 584.602 80.896C584.602 82.56 584.026 83.968 582.874 85.12C581.786 86.272 580.442 86.848 578.842 86.848ZM583.066 95.392V148H574.33V95.392H583.066ZM619.363 102.592H608.323V148H599.587V102.592H592.771V95.392H599.587V91.648C599.587 85.76 601.091 81.472 604.099 78.784C607.171 76.032 612.067 74.656 618.786 74.656V81.952C614.947 81.952 612.227 82.72 610.627 84.256C609.091 85.728 608.323 88.192 608.323 91.648V95.392H619.363V102.592ZM674.86 95.392L643.18 172.768H634.156L644.524 147.424L623.308 95.392H633.004L649.516 138.016L665.836 95.392H674.86Z" fill="black"/>
</svg>
